<?xml version="1.0" standalone="no"?>
<!DOCTYPE svg PUBLIC "-//W3C//DTD SVG 20010904//EN"
 "http://www.w3.org/TR/2001/REC-SVG-20010904/DTD/svg10.dtd">
<svg version="1.0" xmlns="http://www.w3.org/2000/svg"
 width="1024.000000pt" height="1024.000000pt" viewBox="0 0 1024.000000 1024.000000"
 preserveAspectRatio="xMidYMid meet">

<g transform="translate(0.000000,1024.000000) scale(0.100000,-0.100000)"
fill="#000000" stroke="none">
<path d="M4845 8518 c-143 -82 -539 -310 -880 -505 -341 -196 -852 -489 -1135
-653 -283 -164 -567 -326 -630 -362 l-115 -64 0 -1724 0 -1724 105 -62 c58
-34 371 -216 695 -404 667 -387 1319 -767 1853 -1080 200 -117 374 -213 386
-213 12 0 127 62 256 138 273 160 805 469 1380 803 223 129 479 278 569 331
90 53 313 182 495 286 l331 190 0 1730 0 1729 -125 74 c-69 41 -253 149 -410
240 -306 177 -734 427 -945 552 -71 42 -296 170 -500 285 -203 114 -410 231
-460 260 -228 133 -579 325 -593 324 -10 0 -134 -68 -277 -151z m475 -229 c96
-56 348 -199 560 -319 433 -245 642 -365 1040 -597 151 -88 372 -215 490 -283
267 -153 477 -280 489 -294 4 -6 11 -721 14 -1588 l6 -1577 -28 -24 c-16 -13
-114 -73 -217 -132 -104 -60 -389 -226 -634 -368 -245 -143 -614 -357 -820
-477 -206 -119 -456 -264 -555 -322 -99 -57 -260 -151 -358 -208 l-178 -103
-37 17 c-20 10 -107 60 -192 110 -85 51 -265 157 -400 236 -135 79 -344 202
-465 273 -535 315 -697 410 -1140 667 -258 150 -489 283 -512 296 -23 13 -45
29 -48 34 -11 17 -5 3141 5 3160 5 10 422 254 927 543 505 288 1125 644 1378
790 253 146 469 266 480 266 11 1 99 -44 195 -100z"/>
<path d="M3656 7321 c-4 -5 13 -32 38 -59 61 -70 103 -133 136 -206 63 -138
60 -68 60 -1380 0 -722 4 -1196 9 -1196 5 0 28 57 51 128 94 286 240 480 475
633 50 32 101 66 114 75 l24 17 -4 761 -4 761 505 0 505 -1 95 -26 c195 -53
275 -96 400 -214 185 -175 264 -362 263 -624 -1 -144 -21 -238 -79 -360 -102
-215 -282 -345 -577 -414 -142 -34 -180 -53 -282 -140 -117 -99 -164 -122
-385 -196 -254 -85 -319 -117 -405 -204 -81 -82 -133 -173 -166 -291 -26 -92
-27 -154 -19 -845 l5 -415 -31 -48 c-16 -26 -76 -96 -132 -156 -56 -60 -102
-113 -102 -118 0 -4 30 -24 66 -43 l65 -35 133 135 c83 85 140 153 155 183
l23 47 -11 363 c-16 521 -15 799 4 870 39 152 130 262 257 315 132 55 183 61
593 77 247 9 406 20 455 30 322 65 643 263 827 510 61 82 143 242 172 339 80
261 82 583 5 828 -66 212 -150 355 -294 499 -192 193 -414 308 -735 380 -100
23 -103 23 -1152 26 -682 3 -1053 0 -1057 -6z"/>
<path d="M5405 6264 c-33 -14 -74 -36 -90 -49 -41 -30 -85 -113 -92 -173 -8
-70 20 -125 115 -224 88 -93 102 -114 102 -156 0 -52 -68 -170 -139 -242 -89
-90 -133 -110 -551 -245 -63 -20 -135 -48 -160 -63 -219 -125 -460 -440 -529
-691 -30 -108 -39 -233 -46 -636 -4 -198 -11 -375 -16 -392 -10 -30 -89 -133
-212 -276 -27 -31 -46 -60 -43 -66 6 -9 129 -81 140 -81 15 0 250 292 274 340
l27 55 7 360 c9 470 13 545 38 635 69 246 271 507 464 600 45 21 169 68 276
103 107 36 212 73 234 82 172 74 334 252 388 429 17 56 19 83 14 146 l-6 77
29 13 c37 15 96 71 117 111 24 48 28 119 10 183 -44 150 -205 224 -351 160z
m179 -165 c47 -55 23 -142 -48 -175 -44 -21 -80 -12 -123 31 -37 37 -42 69
-18 115 23 44 53 60 111 60 46 0 55 -4 78 -31z"/>
<path d="M6374 4658 c-47 -52 -110 -131 -122 -155 -7 -12 -12 -35 -12 -51 l0
-30 -332 -4 c-299 -4 -341 -7 -413 -26 -175 -47 -438 -212 -637 -401 l-83 -79
3 -733 c2 -404 5 -742 8 -751 5 -16 114 -87 160 -105 16 -6 17 36 10 748 l-7
755 23 29 c36 47 329 258 426 308 145 75 157 77 563 77 l357 0 64 -30 c52 -25
76 -30 135 -30 39 0 83 4 97 10 43 16 111 86 141 145 49 98 35 190 -42 275
-56 64 -100 80 -214 80 -95 0 -95 0 -125 -32z m204 -134 c31 -21 55 -71 48
-100 -4 -13 -20 -39 -37 -59 -25 -28 -39 -35 -66 -35 -71 0 -134 66 -119 124
3 13 18 38 32 55 22 27 33 31 73 31 26 0 56 -7 69 -16z"/>
<path d="M5980 4054 c-14 -2 -44 -7 -67 -10 -35 -4 -53 -16 -101 -63 l-59 -58
-159 -6 c-176 -7 -248 -22 -309 -65 -54 -37 -101 -111 -114 -175 -5 -28 -12
-268 -15 -532 -3 -264 -10 -572 -16 -684 -5 -113 -7 -207 -5 -209 3 -3 22 6
43 20 21 14 61 37 88 51 l51 26 6 143 c4 79 7 359 7 623 0 264 5 498 10 520
11 49 47 80 112 95 54 13 223 17 253 6 11 -3 41 -38 67 -76 26 -37 64 -81 84
-97 34 -25 46 -28 131 -31 113 -5 137 4 197 68 91 97 114 184 73 271 -60 130
-168 201 -277 183z m86 -175 c13 -12 30 -36 39 -55 14 -29 14 -37 2 -67 -18
-41 -61 -77 -94 -77 -73 0 -129 62 -120 132 12 89 110 127 173 67z"/>
</g>
</svg>
